<svg xmlns="http://www.w3.org/2000/svg" viewBox="0 0 32 32">
  <!-- Background -->
  <rect width="32" height="32" fill="#0d0d1b"/>
  
  <!-- Pixel Art P Logo -->
  <!-- Top horizontal bar -->
  <rect x="8" y="6" width="2" height="2" fill="#10b981"/>
  <rect x="10" y="6" width="2" height="2" fill="#10b981"/>
  <rect x="12" y="6" width="2" height="2" fill="#34d399"/>
  <rect x="14" y="6" width="2" height="2" fill="#6ee7b7"/>
  <rect x="16" y="6" width="2" height="2" fill="#34d399"/>
  <rect x="18" y="6" width="2" height="2" fill="#10b981"/>
  
  <!-- Second row -->
  <rect x="6" y="8" width="2" height="2" fill="#10b981"/>
  <rect x="8" y="8" width="2" height="2" fill="#34d399"/>
  <rect x="10" y="8" width="2" height="2" fill="#6ee7b7"/>
  <rect x="12" y="8" width="2" height="2" fill="#a7f3d0"/>
  <rect x="14" y="8" width="2" height="2" fill="#6ee7b7"/>
  <rect x="16" y="8" width="2" height="2" fill="#34d399"/>
  <rect x="18" y="8" width="2" height="2" fill="#10b981"/>
  <rect x="20" y="8" width="2" height="2" fill="#059669"/>
  
  <!-- Third row - P shape -->
  <rect x="6" y="10" width="2" height="2" fill="#10b981"/>
  <rect x="8" y="10" width="2" height="2" fill="#34d399"/>
  <rect x="10" y="10" width="2" height="2" fill="#6ee7b7"/>
  <rect x="18" y="10" width="2" height="2" fill="#34d399"/>
  <rect x="20" y="10" width="2" height="2" fill="#10b981"/>
  
  <!-- Fourth row - middle closing -->
  <rect x="6" y="12" width="2" height="2" fill="#10b981"/>
  <rect x="8" y="12" width="2" height="2" fill="#34d399"/>
  <rect x="10" y="12" width="2" height="2" fill="#6ee7b7"/>
  <rect x="12" y="12" width="2" height="2" fill="#a7f3d0"/>
  <rect x="14" y="12" width="2" height="2" fill="#6ee7b7"/>
  <rect x="16" y="12" width="2" height="2" fill="#34d399"/>
  <rect x="18" y="12" width="2" height="2" fill="#10b981"/>
  
  <!-- Fifth row -->
  <rect x="6" y="14" width="2" height="2" fill="#10b981"/>
  <rect x="8" y="14" width="2" height="2" fill="#34d399"/>
  <rect x="10" y="14" width="2" height="2" fill="#6ee7b7"/>
  <rect x="12" y="14" width="2" height="2" fill="#34d399"/>
  <rect x="14" y="14" width="2" height="2" fill="#10b981"/>
  
  <!-- Vertical stem continues -->
  <rect x="6" y="16" width="2" height="2" fill="#10b981"/>
  <rect x="8" y="16" width="2" height="2" fill="#34d399"/>
  
  <rect x="6" y="18" width="2" height="2" fill="#10b981"/>
  <rect x="8" y="18" width="2" height="2" fill="#34d399"/>
  
  <rect x="6" y="20" width="2" height="2" fill="#10b981"/>
  <rect x="8" y="20" width="2" height="2" fill="#34d399"/>
  
  <!-- Bottom of stem -->
  <rect x="6" y="22" width="2" height="2" fill="#10b981"/>
  <rect x="8" y="22" width="2" height="2" fill="#059669"/>
</svg>
