<svg xmlns="http://www.w3.org/2000/svg" viewBox="0 0 120 40">
  <g id="layered-p">
    <path d="M 8 8 L 8 32 L 12 32 L 12 24 L 20 24 C 24 24 28 20 28 16 C 28 12 24 8 20 8 Z M 12 12 L 20 12 C 22 12 24 14 24 16 C 24 18 22 20 20 20 L 12 20 Z" fill="#059669" opacity="0.6"/>
    <path d="M 6 6 L 6 30 L 10 30 L 10 22 L 18 22 C 22 22 26 18 26 14 C 26 10 22 6 18 6 Z M 10 10 L 18 10 C 20 10 22 12 22 14 C 22 16 20 18 18 18 L 10 18 Z" fill="#10b981" opacity="0.8"/>
    <path d="M 4 4 L 4 28 L 8 28 L 8 20 L 16 20 C 20 20 24 16 24 12 C 24 8 20 4 16 4 Z M 8 8 L 16 8 C 18 8 20 10 20 12 C 20 14 18 16 16 16 L 8 16 Z" fill="#34d399"/>
  </g>
  <text x="32" y="26" font-family="JetBrains Mono, monospace" font-size="18" font-weight="700" fill="#10b981">PypNetty</text>
</svg>
